<?xml version="1.0" standalone="no"?>
<!DOCTYPE svg PUBLIC "-//W3C//DTD SVG 20010904//EN"
 "http://www.w3.org/TR/2001/REC-SVG-20010904/DTD/svg10.dtd">
<svg version="1.0" xmlns="http://www.w3.org/2000/svg"
 width="512.000000pt" height="512.000000pt" viewBox="0 0 512.000000 512.000000"
 preserveAspectRatio="xMidYMid meet">
<metadata>
Created by potrace 1.14, written by Peter Selinger 2001-2017
</metadata>
<g transform="translate(0.000000,512.000000) scale(0.100000,-0.100000)"
fill="#000000" stroke="none">
<path d="M0 2560 l0 -2560 2560 0 2560 0 0 2560 0 2560 -2560 0 -2560 0 0
-2560z m3065 2490 c-28 -12 -37 -12 -30 0 3 6 16 10 28 9 21 0 21 -1 2 -9z
m495 -235 c0 -7 9 -20 21 -31 27 -24 70 -116 76 -162 5 -40 -25 -109 -46 -105
-6 2 -11 -3 -11 -10 -1 -16 -29 34 -30 52 0 8 8 20 18 27 16 12 16 13 -3 8
-13 -3 -24 2 -33 16 -7 11 -8 20 -3 20 5 0 12 7 15 16 5 14 4 15 -9 4 -13 -10
-15 -9 -15 9 0 12 7 24 15 27 8 4 15 11 15 16 0 6 -7 8 -15 4 -12 -4 -15 4
-14 42 2 46 2 46 9 12 l7 -35 2 34 c0 19 -8 49 -21 70 l-22 36 22 -19 c12 -11
22 -24 22 -31z m-1877 -2 c-7 -2 -21 -2 -30 0 -10 3 -4 5 12 5 17 0 24 -2 18
-5z m2369 -78 c16 -20 16 -21 -2 -33 -19 -11 -20 -9 -20 25 0 20 1 34 3 32 1
-2 10 -13 19 -24z m-1262 -197 c41 -14 98 -37 126 -51 66 -34 193 -136 240
-193 20 -24 41 -41 47 -37 5 3 7 1 4 -4 -4 -6 9 -37 28 -69 19 -32 35 -62 35
-67 0 -4 5 -5 12 -1 6 4 8 3 5 -3 -3 -5 2 -31 12 -58 15 -39 19 -44 24 -26 7
29 25 27 33 -4 3 -14 11 -25 18 -25 8 0 8 -2 0 -8 -14 -9 0 -52 18 -52 9 0 9
3 0 12 -19 19 -14 30 8 18 13 -7 20 -21 20 -38 0 -21 -2 -24 -10 -12 -8 12
-10 10 -10 -9 0 -18 4 -22 18 -16 12 4 14 3 6 -5 -19 -19 6 -60 36 -60 15 0
32 -6 38 -12 10 -10 17 -10 32 0 22 14 26 3 10 -28 -7 -13 -7 -21 0 -25 6 -4
9 -1 8 6 -2 7 2 13 7 14 6 0 15 4 22 8 8 5 9 0 6 -15 -3 -13 -2 -20 2 -16 5 5
17 -7 29 -25 17 -28 20 -29 24 -12 4 16 6 15 17 -10 8 -17 14 -24 14 -16 1 20
41 -17 41 -38 0 -9 6 -28 14 -43 8 -15 12 -36 9 -47 -3 -14 1 -23 11 -27 11
-4 15 -13 11 -25 -4 -12 -1 -21 9 -25 9 -3 16 -17 16 -31 0 -13 4 -21 10 -18
10 6 14 -17 10 -69 -1 -18 2 -26 9 -22 6 4 11 17 11 29 1 15 6 9 15 -18 8 -22
19 -41 26 -44 8 -2 7 -6 -2 -12 -10 -6 -10 -9 -2 -9 7 0 19 -13 28 -30 10 -19
20 -27 30 -24 11 4 15 -1 15 -17 0 -19 -2 -21 -10 -9 -8 12 -10 11 -10 -6 0
-12 7 -27 15 -34 8 -7 15 -25 15 -41 0 -16 5 -29 11 -29 5 0 7 -5 4 -10 -10
-16 5 -50 21 -50 8 0 14 -4 14 -10 0 -5 -4 -10 -10 -10 -5 0 -10 -7 -10 -15 0
-11 8 -13 33 -8 l32 6 -23 -26 c-23 -24 -23 -25 -4 -31 18 -6 39 -46 23 -46
-4 0 -7 -9 -8 -20 -2 -20 4 -23 42 -21 11 0 14 -2 7 -5 -6 -3 -10 -10 -6 -15
3 -5 0 -9 -7 -9 -9 0 -9 -3 0 -14 13 -16 4 -25 -21 -21 -11 2 -15 -2 -11 -11
3 -8 9 -14 14 -14 5 0 9 -9 9 -20 0 -12 7 -20 18 -21 10 0 12 -3 4 -6 -6 -2
-10 -9 -6 -14 3 -5 -2 -16 -10 -24 -16 -17 -11 -49 7 -38 6 4 7 1 2 -8 -9 -14
-15 -52 -7 -45 9 10 43 -33 40 -50 -2 -11 2 -18 8 -17 6 1 11 -8 10 -20 -1
-12 -7 -21 -14 -19 -15 3 -15 0 0 -35 16 -40 18 -53 7 -53 -6 0 -7 -5 -3 -11
4 -8 9 -7 15 2 15 23 28 -9 22 -49 -4 -23 -3 -33 4 -29 6 4 14 0 17 -9 9 -24
7 -52 -4 -56 -5 -1 -12 -18 -14 -35 -2 -21 0 -30 7 -26 7 4 8 -11 4 -44 -4
-32 -2 -54 6 -62 8 -8 8 -11 -1 -11 -7 0 -12 -11 -12 -25 0 -14 -6 -25 -12
-25 -8 0 -9 -3 -3 -8 15 -11 51 -56 40 -49 -15 8 -12 -33 3 -61 11 -18 11 -26
1 -38 -9 -11 -9 -18 -1 -26 7 -7 12 -20 12 -30 0 -14 -6 -17 -26 -14 -21 4
-24 3 -14 -10 7 -7 19 -14 26 -14 16 0 17 -9 5 -29 -6 -9 -6 -22 1 -34 7 -13
7 -22 -1 -30 -15 -15 -14 -24 3 -30 10 -4 13 -1 10 7 -3 8 -1 17 5 21 7 4 10
-11 8 -44 -1 -28 -5 -51 -9 -51 -11 0 -2 -31 12 -40 12 -7 11 -10 -3 -16 -9
-3 -24 -1 -31 5 -12 10 -13 8 -9 -9 5 -20 4 -21 -14 -9 -17 10 -24 9 -40 -7
-11 -10 -27 -32 -35 -49 -18 -35 -33 -97 -20 -76 7 9 11 10 17 2 13 -22 103
13 107 42 3 19 4 18 10 -6 4 -23 1 -30 -16 -37 -18 -7 -18 -9 -3 -9 12 -1 16
-5 11 -13 -5 -9 -2 -9 9 1 18 14 22 8 18 -29 -1 -10 5 -7 19 9 11 13 20 18 20
13 0 -6 -5 -14 -11 -17 -6 -4 -8 -13 -5 -21 3 -8 2 -13 -2 -11 -14 4 -58 -45
-44 -50 6 -3 12 -11 12 -19 0 -8 6 -17 14 -20 8 -3 12 -12 9 -20 -6 -17 9 -18
25 -2 9 9 12 9 12 0 0 -7 -4 -12 -9 -12 -5 0 -12 -9 -16 -20 -3 -11 -12 -19
-18 -17 -13 2 -11 -46 3 -51 10 -4 0 -52 -12 -52 -6 0 -8 9 -5 20 3 11 1 20
-4 20 -5 0 -9 -6 -9 -14 0 -8 -3 -22 -7 -32 -4 -11 -3 -15 5 -10 6 4 12 -4 14
-21 3 -30 1 -39 -26 -91 -25 -47 -17 -59 41 -56 26 2 82 -1 123 -6 41 -5 103
-11 137 -12 34 -1 59 -6 57 -10 -3 -5 0 -8 5 -8 6 0 11 5 11 11 0 9 23 10 83
4 45 -4 109 -7 142 -6 35 0 71 -5 85 -13 l25 -14 -28 -13 c-39 -18 -33 -32 12
-27 25 2 37 0 34 -7 -3 -5 0 -4 8 3 8 7 14 20 14 30 0 10 8 17 22 18 12 1 28
4 37 7 12 5 15 1 13 -16 -1 -16 3 -21 17 -19 11 2 15 -1 11 -7 -3 -6 -15 -11
-25 -11 -10 0 -20 -5 -22 -10 -2 -6 -20 -12 -40 -13 -46 -4 -58 -15 -36 -31
16 -12 14 -13 -15 -14 -49 -2 -87 8 -87 24 0 8 -4 14 -10 14 -5 0 -10 9 -10
20 0 19 -10 24 -37 21 -7 -1 -26 8 -43 21 -29 21 -31 21 -48 5 -9 -10 -17 -34
-18 -55 0 -20 -1 -58 -2 -84 l-2 -48 -73 0 c-51 0 -79 -5 -93 -15 -18 -15 -18
-16 11 -11 58 10 152 9 128 -1 -24 -9 14 -33 69 -42 l53 -9 -60 -1 c-33 0 -84
6 -113 13 -30 8 -60 13 -68 10 -48 -14 -46 -12 -28 -39 9 -14 13 -29 9 -33 -9
-9 -125 -9 -125 1 0 4 0 10 1 13 0 3 -8 12 -18 20 -20 15 -53 19 -53 5 0 -5
-14 -23 -32 -40 -17 -17 -26 -31 -20 -31 7 0 12 -9 12 -20 0 -19 13 -24 72
-24 9 0 16 -2 15 -5 -1 -3 3 -6 8 -6 6 0 9 4 7 8 -4 12 36 -11 44 -26 5 -8 2
-7 -9 2 -10 8 -21 11 -24 7 -4 -4 -1 -12 7 -17 11 -7 5 -8 -20 -4 -26 5 -31 4
-20 -4 8 -6 24 -11 36 -11 21 0 44 -17 44 -33 0 -5 -8 -6 -17 -1 -10 4 -108
11 -218 14 -198 7 -433 31 -489 50 -16 6 -50 10 -75 10 -42 0 -71 12 -71 31 0
8 40 24 93 38 35 9 37 8 32 -10 -5 -15 -2 -19 17 -19 13 0 41 -3 63 -5 27 -4
34 -3 20 3 -17 8 -16 9 10 15 17 3 49 1 73 -5 30 -7 50 -7 66 0 12 5 53 13 89
17 37 4 70 12 74 19 4 6 10 29 14 51 l6 40 2 -37 c1 -33 4 -38 24 -37 12 0 16
3 9 6 -28 11 3 23 64 23 46 0 64 4 64 13 0 21 -22 37 -49 37 -49 0 -72 11 -66
30 6 19 -11 37 -23 25 -3 -3 0 -10 8 -15 13 -9 13 -10 0 -10 -8 0 -26 -6 -40
-13 -15 -7 -39 -10 -60 -6 -29 5 -31 7 -8 8 21 1 25 5 21 21 -4 13 0 20 9 20
23 0 49 35 42 55 -5 13 -4 16 5 11 9 -6 10 0 5 21 -11 46 -38 54 -88 28 -24
-13 -27 -13 -22 0 3 8 1 17 -4 20 -6 4 -10 -1 -10 -10 0 -11 -5 -15 -14 -12
-7 3 -19 0 -25 -6 -14 -14 -15 -30 -1 -22 5 3 7 0 5 -7 -3 -8 5 -23 18 -35 18
-15 24 -29 22 -57 -2 -35 -25 -78 -25 -47 0 10 -19 12 -79 10 -63 -3 -77 -1
-73 9 6 18 -19 34 -33 22 -11 -9 -47 -8 -75 3 -38 14 -47 12 -81 -14 -43 -34
-55 -36 -134 -25 -40 5 -64 14 -73 27 -7 10 -19 19 -25 19 -7 0 -4 -5 6 -11 9
-5 17 -15 17 -22 0 -8 -3 -7 -9 2 -6 9 -30 14 -69 15 -34 1 -65 6 -69 10 -4 5
0 6 9 3 10 -4 28 -2 40 3 19 7 16 9 -21 9 -37 1 -42 3 -31 16 6 8 17 13 23 12
7 -1 11 5 11 14 -1 11 5 14 22 11 18 -3 39 10 91 58 37 34 87 73 111 87 27 16
44 34 48 51 4 15 20 42 37 60 37 38 30 43 -10 6 -35 -33 -63 -48 -63 -35 0 5
14 18 30 28 17 10 40 33 50 51 24 40 25 49 5 32 -11 -9 -15 -9 -15 -1 0 6 10
16 23 21 12 5 16 9 10 9 -7 1 -13 5 -13 11 0 5 6 7 14 4 9 -3 16 5 21 23 4 15
10 22 12 15 7 -17 52 32 65 70 13 38 3 47 -22 20 -12 -12 -26 -22 -32 -22 -7
0 -2 9 9 20 12 10 26 35 33 55 6 19 15 33 19 31 4 -3 9 20 10 51 1 31 4 60 7
65 8 13 44 9 45 -4 0 -7 7 7 14 32 16 50 13 67 -3 21 -6 -17 -18 -31 -27 -31
-13 0 -14 4 -5 21 13 24 7 49 -12 49 -10 0 -10 -2 0 -8 9 -6 10 -16 1 -40 -6
-18 -15 -32 -19 -32 -11 0 0 72 14 89 6 9 6 12 1 9 -8 -5 -11 176 -10 589 l1
595 37 13 c52 18 67 33 67 68 l0 30 -23 -34 c-34 -51 -51 -44 -58 21 -10 89
-48 190 -95 252 -24 31 -44 58 -44 61 0 10 66 14 83 5 16 -8 17 -7 8 11 -10
17 -22 20 -79 21 -138 3 -132 2 -121 22 8 14 6 16 -7 11 -13 -5 -15 -3 -9 8 5
8 1 7 -12 -3 -11 -10 -24 -18 -29 -18 -5 0 -2 5 6 10 10 7 11 10 2 10 -7 0
-30 -11 -52 -25 -35 -22 -39 -23 -43 -7 -3 10 -5 5 -6 -11 -1 -33 -17 -67 -31
-67 -6 0 -10 7 -10 15 0 7 -6 18 -14 22 -16 9 -25 120 -12 141 4 7 3 12 -3 12
-5 0 -10 15 -9 33 1 88 -10 134 -27 107 -3 -5 -11 -10 -18 -10 -6 0 1 11 16
25 15 14 27 31 27 38 0 6 12 22 28 35 l27 23 -34 -17 c-29 -13 -33 -14 -28 -1
3 8 1 19 -5 25 -6 6 -13 57 -15 114 -5 149 -21 268 -43 309 -11 21 -21 57 -24
82 -2 24 -12 56 -21 71 -20 30 -31 35 -15 7 5 -11 10 -23 10 -28 -1 -4 -8 4
-16 20 -8 15 -12 32 -9 37 3 6 1 10 -4 10 -6 0 -10 3 -10 8 3 18 -2 33 -9 28
-12 -7 -40 19 -51 47 -6 15 -17 27 -26 27 -8 0 -15 5 -15 10 0 6 0 12 0 15 0
10 -45 50 -59 52 -8 1 -17 7 -21 13 -19 30 -226 113 -315 126 -27 4 -95 6
-149 5 -79 -1 -112 -7 -161 -26 -34 -14 -70 -25 -79 -25 -18 0 -98 -39 -146
-71 -14 -9 -42 -26 -63 -38 -66 -37 -42 4 47 81 84 73 186 129 288 159 95 28
324 21 428 -13z m-800 -4 c0 -8 -4 -14 -10 -14 -5 0 -10 9 -10 21 0 11 5 17
10 14 6 -3 10 -13 10 -21z m2276 -123 c45 -48 49 -66 25 -100 -12 -16 -21 -36
-21 -45 0 -9 -5 -16 -10 -16 -6 0 -37 -37 -71 -82 -33 -46 -66 -86 -73 -90
-16 -9 -31 18 -16 27 15 9 12 55 -5 71 -11 11 -12 21 -4 41 7 19 6 28 -3 34
-15 10 -10 16 17 21 15 2 19 -2 17 -18 -1 -12 4 -27 13 -34 12 -10 15 -10 15
3 0 8 -3 17 -7 20 -5 2 -2 2 5 1 6 -2 12 1 12 6 0 17 -5 25 -12 23 -4 -2 -5 4
-1 13 4 10 1 15 -8 14 -32 -5 -42 0 -30 13 6 8 7 18 3 22 -4 5 1 5 10 2 18 -6
43 16 35 31 -7 11 3 24 31 40 23 13 23 12 18 -25 -6 -36 -5 -36 4 -8 5 17 7
38 4 48 -5 15 -8 16 -22 5 -15 -11 -15 -11 -5 3 20 25 43 19 79 -20z m-1606
-172 c4 -6 22 -12 41 -13 43 -4 110 -36 102 -49 -4 -6 -1 -7 6 -2 19 11 128
-100 161 -165 46 -91 52 -145 53 -494 2 -312 1 -322 -20 -361 -12 -22 -31 -48
-43 -58 -11 -10 -19 -21 -16 -25 2 -4 -4 -8 -15 -8 -14 0 -19 7 -19 26 0 18
-3 21 -9 11 -7 -11 -10 -9 -16 8 -8 25 -41 45 -62 37 -9 -4 -36 1 -60 10 -58
22 -74 5 -37 -39 13 -16 24 -33 24 -38 0 -5 10 -23 22 -39 16 -23 30 -30 54
-30 31 0 34 -3 45 -42 6 -24 23 -53 37 -65 15 -13 19 -20 10 -17 -24 8 -104
-30 -123 -60 -9 -14 -19 -43 -22 -64 -5 -36 -2 -41 39 -78 54 -47 64 -62 41
-60 -30 2 -98 -165 -110 -270 -7 -60 36 -107 124 -134 131 -40 250 -17 300 59
31 46 29 81 -11 179 l-33 83 25 19 c26 21 138 59 176 61 20 0 20 1 1 9 -29 13
-3 12 34 -1 29 -10 31 -14 32 -62 0 -29 1 -233 3 -454 2 -399 2 -403 -19 -404
-11 -1 -23 -1 -27 0 -5 0 -8 -5 -8 -12 0 -7 -9 -13 -19 -13 -11 0 -19 5 -18
11 1 5 -12 9 -30 7 -21 -1 -33 3 -33 10 0 9 -3 9 -12 0 -7 -7 -21 -11 -33 -11
-16 1 -17 2 -3 6 14 4 15 8 5 24 -16 26 -27 24 -27 -6 0 -14 -5 -25 -11 -25
-13 0 -2 39 17 61 33 37 -1 120 -71 170 -24 17 -42 36 -38 42 3 6 2 7 -4 4
-10 -6 -129 15 -155 27 -7 4 -6 1 3 -5 14 -11 12 -15 -14 -40 -17 -16 -38 -29
-49 -29 -53 0 -142 -76 -168 -144 -16 -43 -12 -98 10 -134 22 -36 25 -46 10
-37 -14 9 -38 69 -41 102 -4 51 1 70 27 108 20 29 22 40 12 46 -9 6 -17 -4
-28 -33 -11 -31 -21 -42 -37 -43 -25 -2 -31 10 -10 18 7 4 6 6 -4 6 -14 1 -16
7 -9 36 4 19 5 35 0 35 -9 0 -60 47 -60 55 0 4 9 4 19 0 21 -6 51 27 51 55 -1
13 -2 13 -13 0 -7 -8 -22 -21 -35 -28 -20 -11 -23 -9 -37 24 -8 20 -15 39 -15
41 0 3 -12 18 -27 33 -14 16 -28 39 -30 52 -2 12 -10 29 -17 36 -11 11 -18 8
-40 -19 -20 -24 -30 -29 -39 -20 -6 6 -19 11 -28 11 -9 0 -22 7 -29 15 -7 8
-17 12 -23 8 -5 -3 -7 -1 -3 5 8 13 -22 92 -36 92 -5 0 -6 5 -3 10 4 6 -1 22
-9 36 -13 19 -22 23 -44 18 l-27 -6 24 17 c32 24 49 12 73 -50 30 -80 50 -113
75 -124 36 -17 46 -14 83 24 19 19 44 35 55 35 39 0 101 -55 130 -115 24 -47
27 -64 22 -110 -5 -52 -4 -55 17 -55 24 0 51 22 40 32 -3 3 -1 9 5 12 5 4 12
-3 16 -14 10 -32 27 -24 20 10 -4 19 -2 36 5 45 7 8 10 15 7 15 -3 0 -1 13 4
29 8 22 15 27 34 23 13 -2 26 -10 29 -18 7 -18 -7 -56 -29 -77 -15 -16 -14
-17 12 -17 22 0 25 2 13 10 -13 9 -8 14 11 12 4 -1 5 8 2 18 -4 16 -2 19 13
14 11 -4 16 -4 12 1 -4 4 -2 15 5 23 10 13 9 15 -5 9 -20 -7 -35 10 -21 24 5
5 21 10 36 11 15 1 27 6 27 10 0 4 8 5 18 2 10 -4 13 -2 7 3 -19 16 -36 54
-29 65 5 8 1 9 -10 5 -10 -4 -19 -1 -23 8 -3 10 -13 14 -27 10 -21 -6 -21 -6
-2 9 15 12 16 16 5 16 -8 0 -34 14 -57 31 -23 17 -42 28 -42 24 0 -4 -11 0
-25 9 -32 21 -41 20 -24 -1 13 -16 12 -17 -3 -4 -10 7 -16 17 -13 21 5 9 -53
35 -61 28 -9 -10 -119 18 -119 30 0 19 -18 16 -27 -5 -18 -39 4 60 30 139 23
71 31 84 55 92 23 8 31 6 50 -13 17 -17 18 -21 5 -15 -11 3 -18 1 -18 -5 0 -6
6 -11 14 -11 7 0 19 -7 26 -15 22 -26 73 -18 108 16 38 38 43 89 13 147 -39
77 -114 119 -226 129 -42 3 -78 10 -81 14 -3 5 -10 9 -15 9 -6 0 -7 -5 -3 -11
4 -7 1 -10 -6 -7 -19 6 -42 110 -27 120 30 19 72 8 103 -28 31 -36 59 -40 47
-7 -5 12 -2 15 8 11 20 -8 151 11 166 24 7 6 13 26 13 44 0 19 5 34 10 34 15
0 12 21 -7 42 -23 26 -40 22 -58 -12 -20 -39 -20 -40 18 -41 l32 -1 -30 -9
c-24 -7 -39 -5 -71 12 -39 20 -43 20 -70 4 -28 -16 -25 -16 25 0 18 5 22 4 16
-5 -5 -9 -4 -11 3 -6 7 4 12 3 12 -3 0 -5 -16 -15 -35 -22 -21 -8 -38 -23 -44
-38 -6 -18 -10 -20 -10 -9 -1 10 -4 17 -8 17 -5 -1 -17 -1 -28 0 -18 1 -17 4
8 26 30 27 24 35 -9 10 -27 -21 -31 -19 -50 21 -14 29 -15 37 -4 44 9 6 10 15
3 36 -6 17 -6 33 -1 39 5 6 16 19 24 30 9 11 13 15 10 9 -3 -7 3 -14 14 -17
28 -7 26 19 -4 46 -17 16 -35 22 -60 21 -20 -1 -33 2 -30 7 3 5 10 7 15 4 5
-4 16 -2 26 3 12 7 7 10 -23 10 -58 1 -66 -7 -62 -64 3 -45 5 -49 31 -52 33
-4 51 -35 41 -70 -4 -15 -6 -33 -5 -39 1 -7 -6 -13 -15 -13 -13 0 -15 6 -9 36
4 22 3 34 -3 30 -5 -3 -15 1 -22 9 -15 18 -49 20 -54 3 -3 -7 -7 -25 -10 -40
-4 -17 -13 -28 -24 -29 -9 -1 -4 -4 13 -8 19 -4 35 -16 43 -34 7 -15 17 -27
23 -27 5 0 9 -3 9 -7 0 -5 -22 -6 -49 -5 -45 3 -51 7 -60 33 -5 16 -12 29 -15
29 -3 0 -2 -10 2 -22 5 -13 8 -35 7 -50 0 -15 3 -24 7 -22 4 3 8 3 8 0 0 -2 3
-12 7 -21 5 -14 2 -16 -18 -10 -21 7 -22 6 -10 -9 11 -14 11 -16 -3 -16 -25 0
-49 59 -50 123 -2 60 0 63 24 47 11 -7 16 -4 21 13 3 12 3 32 1 45 -4 21 -6
21 -17 5 -11 -15 -13 -15 -25 6 -10 20 -17 22 -51 17 -21 -3 -39 -3 -38 1 1 5
1 10 0 13 -2 3 -4 21 -6 40 -4 31 -3 33 9 18 19 -25 34 -22 64 13 23 29 27 30
33 13 4 -11 8 -34 8 -51 1 -18 6 -33 12 -33 7 0 8 7 4 18 -14 36 -18 159 -5
196 6 21 10 40 7 42 -10 10 -49 -18 -44 -31 4 -8 -1 -11 -13 -8 -24 6 -37 -17
-16 -29 9 -5 14 -13 11 -18 -3 -5 3 -15 15 -22 11 -7 20 -17 20 -22 0 -6 -16
5 -35 24 -19 19 -35 40 -35 47 0 7 -4 13 -10 13 -5 0 -10 -4 -10 -10 0 -5 -4
-10 -10 -10 -5 0 -9 3 -8 8 2 9 -13 84 -19 95 -8 13 -32 -20 -36 -49 -2 -20
-10 -30 -23 -31 -12 -1 -13 0 -4 3 11 3 15 14 12 38 -2 21 2 38 13 49 10 11
12 17 4 17 -9 0 -10 16 -6 60 5 44 3 60 -6 60 -8 0 -9 3 -1 8 18 11 28 82 12
83 -9 0 -9 2 -2 5 13 6 7 44 -7 44 -5 0 -9 10 -9 23 0 16 3 18 9 9 11 -19 24
-17 32 5 7 16 8 15 8 -4 1 -13 -3 -23 -9 -23 -5 0 -10 -8 -10 -17 0 -15 2 -16
10 -3 8 12 10 9 10 -12 0 -15 4 -38 10 -52 8 -23 15 -26 54 -24 28 1 47 7 50
15 3 8 0 13 -7 11 -6 -1 -27 6 -45 15 -18 10 -37 15 -42 12 -6 -3 -10 3 -10
14 0 12 5 21 10 21 6 0 10 7 10 16 0 8 -4 13 -9 10 -5 -3 -4 12 1 33 6 25 7
45 0 57 -13 23 11 110 55 198 40 79 131 176 163 173 20 -1 29 -27 10 -27 -5 0
-10 -4 -10 -10 0 -17 14 -11 29 11 10 18 10 23 0 30 -7 4 -17 5 -23 2 -5 -3
-6 -1 -3 4 13 20 119 64 139 57 13 -4 18 -2 14 4 -4 6 7 13 26 15 53 8 181 -2
188 -14z m-799 -41 c-11 -18 -26 -35 -33 -37 -7 -2 -5 4 5 13 9 10 22 26 27
37 6 10 13 19 16 19 3 0 -3 -15 -15 -32z m2159 -38 c0 -5 -2 -10 -4 -10 -3 0
-8 5 -11 10 -3 6 -1 10 4 10 6 0 11 -4 11 -10z m680 -27 c0 -16 -12 -65 -26
-111 -26 -81 -28 -83 -53 -77 -14 4 -28 10 -31 14 -11 17 -37 17 -68 -1 -37
-20 -52 -23 -52 -8 0 6 9 10 19 10 11 0 23 5 26 10 3 6 1 10 -5 10 -6 0 -8 5
-4 11 4 7 10 7 16 1 6 -6 26 -8 44 -5 24 4 34 2 34 -8 0 -10 2 -11 13 0 10 10
9 15 -5 25 -23 17 -23 17 7 52 28 32 33 56 10 48 -8 -4 -15 -11 -15 -18 0 -18
-38 -46 -71 -53 -16 -3 -41 -19 -54 -35 -14 -16 -25 -26 -25 -21 0 5 5 14 11
20 8 8 8 17 0 31 -13 25 0 36 29 27 15 -5 27 2 46 25 17 20 32 29 43 25 8 -3
12 -3 8 2 -8 7 68 52 91 53 7 0 12 -12 12 -27z m-2884 -20 c-8 -15 -15 -25
-16 -21 0 12 23 58 27 54 3 -2 -2 -17 -11 -33z m1509 -33 c3 -5 -1 -10 -10
-10 -9 0 -13 5 -10 10 3 6 8 10 10 10 2 0 7 -4 10 -10z m-1545 -65 c-16 -47
-23 -40 -9 9 6 21 13 36 16 33 3 -3 0 -22 -7 -42z m2780 -5 c0 -5 -5 -10 -11
-10 -5 0 -7 5 -4 10 3 6 8 10 11 10 2 0 4 -4 4 -10z m-3039 -92 c11 -21 11
-22 -4 -9 -10 7 -17 17 -17 22 0 15 9 10 21 -13z m1926 -10 c-3 -8 -6 -5 -6 6
-1 11 2 17 5 13 3 -3 4 -12 1 -19z m-1989 -84 c-3 -27 -4 -26 -9 8 -3 22 -1
34 4 29 5 -5 7 -21 5 -37z m2391 9 c15 -61 22 -161 11 -168 -5 -3 -7 1 -4 9 8
21 -24 78 -39 69 -7 -4 -7 0 2 10 15 18 26 23 16 7 -3 -5 -2 -10 4 -10 13 0 3
89 -12 108 -6 8 -6 12 1 12 6 0 15 -17 21 -37z m-56 7 c-5 -19 -23 -39 -23
-25 0 9 20 45 24 45 2 0 2 -9 -1 -20z m-63 -75 c0 -8 -2 -15 -4 -15 -2 0 -6 7
-10 15 -3 8 -1 15 4 15 6 0 10 -7 10 -15z m68 -10 c-3 -3 -9 2 -12 12 -6 14
-5 15 5 6 7 -7 10 -15 7 -18z m-2150 8 c-4 -12 39 -52 47 -45 3 4 3 -2 -1 -12
-4 -12 -9 -14 -14 -6 -4 6 -11 10 -16 9 -5 -1 -20 -1 -34 0 l-25 2 24 10 c18
7 21 12 12 23 -6 7 -8 16 -4 19 9 9 14 9 11 0z m2130 -39 c-4 -3 -12 5 -18 18
-12 22 -12 22 6 6 10 -10 15 -20 12 -24z m-2198 2 c0 -3 -4 -8 -10 -11 -5 -3
-10 -1 -10 4 0 6 5 11 10 11 6 0 10 -2 10 -4z m147 -73 c-2 -16 -4 -5 -4 22 0
28 2 40 4 28 2 -13 2 -35 0 -50z m2058 47 c-3 -5 -12 -10 -18 -10 -7 0 -6 4 3
10 19 12 23 12 15 0z m55 -2 c0 -28 -17 -41 -36 -28 -18 11 -18 11 -1 6 13 -4
20 0 24 14 6 22 13 27 13 8z m-91 -77 c-2 -6 -10 2 -17 17 -11 25 -11 25 4 10
9 -9 15 -21 13 -27z m-2269 15 c0 -2 -7 -7 -16 -10 -8 -3 -12 -2 -9 4 6 10 25
14 25 6z m127 -2 c-3 -3 -12 -4 -19 -1 -8 3 -5 6 6 6 11 1 17 -2 13 -5z m40
-9 c0 -9 -6 -14 -12 -11 -7 2 -17 1 -21 -2 -5 -4 -1 1 9 11 23 21 24 21 24 2z
m340 -62 c-3 -10 -5 -2 -5 17 0 19 2 27 5 18 2 -10 2 -26 0 -35z m-322 27 c3
-5 -1 -10 -9 -10 -9 0 -16 5 -16 10 0 6 4 10 9 10 6 0 13 -4 16 -10z m-55 -80
c12 -16 18 -30 15 -30 -3 0 4 -14 16 -32 13 -17 17 -28 10 -23 -9 5 -12 3 -9
-6 3 -8 15 -15 27 -17 12 -2 25 -11 28 -20 6 -13 8 -13 14 4 6 16 8 16 8 2 1
-10 -7 -25 -18 -35 -10 -10 -23 -27 -30 -38 -10 -17 -10 -14 -5 18 4 21 2 37
-3 37 -14 0 -34 49 -26 63 4 7 -1 6 -10 -2 -15 -12 -17 -11 -17 3 0 9 6 16 13
16 6 0 4 5 -6 11 -13 8 -22 7 -33 -2 -12 -10 -13 -9 -8 4 3 8 12 18 20 21 19
7 7 35 -20 46 -16 7 -17 9 -4 9 9 1 26 -12 38 -29z m1487 -2 c-3 -8 -6 -5 -6
6 -1 11 2 17 5 13 3 -3 4 -12 1 -19z m-1404 0 c-4 -7 -9 -24 -11 -38 -4 -33
-10 -37 -19 -15 -4 12 -2 20 6 23 11 4 11 6 0 13 -11 7 -11 9 -1 9 7 0 10 5 7
10 -3 6 1 10 10 10 10 0 13 -4 8 -12z m2142 -16 c-3 -3 -11 0 -18 7 -9 10 -8
11 6 5 10 -3 15 -9 12 -12z m-2396 -46 c-3 -3 -11 5 -18 17 -13 21 -12 21 5 5
10 -10 16 -20 13 -22z m281 24 c0 -5 -5 -10 -11 -10 -5 0 -7 5 -4 10 3 6 8 10
11 10 2 0 4 -4 4 -10z m2107 -6 c-3 -3 -12 -4 -19 -1 -8 3 -5 6 6 6 11 1 17
-2 13 -5z m283 -24 c0 -5 -4 -10 -9 -10 -6 0 -13 5 -16 10 -3 6 1 10 9 10 9 0
16 -4 16 -10z m-90 -31 c0 -6 -4 -7 -10 -4 -5 3 -10 11 -10 16 0 6 5 7 10 4 6
-3 10 -11 10 -16z m50 -20 c0 -20 -15 -26 -25 -9 -3 6 -2 10 4 10 6 0 7 7 4
17 -4 11 -3 14 5 9 7 -4 12 -16 12 -27z m-2556 -21 c-9 -18 -13 -30 -9 -26 13
13 45 -12 45 -35 0 -30 -27 -67 -48 -66 -14 0 -13 2 3 8 15 6 9 8 -22 9 -24 0
-43 -3 -43 -9 0 -5 -10 -9 -22 -9 -20 1 -21 2 -6 10 9 6 23 23 31 40 13 25 13
31 1 41 -18 15 -3 33 26 34 11 0 19 4 19 10 0 7 18 19 39 24 1 1 -5 -14 -14
-31z m37 19 c-6 -8 -8 -17 -4 -20 3 -4 1 -7 -5 -7 -14 0 -14 2 -6 24 3 9 11
16 16 16 7 0 6 -5 -1 -13z m-215 -45 c-15 -15 -15 -15 -4 10 7 15 15 23 17 17
2 -6 -4 -18 -13 -27z m304 17 c0 -6 -4 -7 -10 -4 -5 3 -10 11 -10 16 0 6 5 7
10 4 6 -3 10 -11 10 -16z m-379 -6 c13 -16 12 -17 -3 -4 -10 7 -18 15 -18 17
0 8 8 3 21 -13z m3086 11 c-3 -3 -12 -4 -19 -1 -8 3 -5 6 6 6 11 1 17 -2 13
-5z m-3120 -26 c-3 -8 -6 -5 -6 6 -1 11 2 17 5 13 3 -3 4 -12 1 -19z m3058
-18 c3 -6 -1 -7 -9 -4 -18 7 -21 14 -7 14 6 0 13 -4 16 -10z m-2270 -37 c9 9
10 14 1 19 -8 6 -8 8 1 8 18 0 24 -16 17 -45 -4 -17 -12 -25 -28 -24 -16 1
-17 2 -3 6 19 5 24 24 5 21 -7 -2 -13 6 -14 17 -1 14 0 15 3 3 3 -14 7 -15 18
-5z m2273 -8 c-3 -3 -9 2 -12 12 -6 14 -5 15 5 6 7 -7 10 -15 7 -18z m-2808
-35 c0 -5 -4 -10 -10 -10 -5 0 -10 5 -10 10 0 6 5 10 10 10 6 0 10 -4 10 -10z
m1608 -8 c-10 -2 -18 -11 -19 -20 0 -11 -2 -13 -6 -4 -9 22 5 42 24 35 17 -7
17 -8 1 -11z m-1056 -27 c-2 -14 -6 -25 -8 -25 -2 0 -4 11 -4 25 0 14 4 25 9
25 4 0 6 -11 3 -25z m-725 -17 c-3 -8 -6 -5 -6 6 -1 11 2 17 5 13 3 -3 4 -12
1 -19z m140 16 c-3 -3 -12 -4 -19 -1 -8 3 -5 6 6 6 11 1 17 -2 13 -5z m3318
-14 c9 -28 -3 -94 -21 -117 -9 -10 -13 -12 -9 -5 9 17 -20 43 -39 36 -9 -3
-16 -10 -16 -16 0 -5 4 -6 10 -3 13 8 0 -28 -14 -37 -20 -14 -23 -9 -24 41 -1
38 4 53 20 67 20 17 21 18 15 2 -13 -35 24 -18 39 17 16 40 30 45 39 15z
m-798 4 c-3 -3 -12 -4 -19 -1 -8 3 -5 6 6 6 11 1 17 -2 13 -5z m-2687 -19 c0
-8 -4 -15 -10 -15 -5 0 -7 7 -4 15 4 8 8 15 10 15 2 0 4 -7 4 -15z m757 -11
c-3 -3 -12 -4 -19 -1 -8 3 -5 6 6 6 11 1 17 -2 13 -5z m1451 -45 c-6 -4 -17
-1 -25 6 -20 20 -16 24 11 12 15 -7 20 -14 14 -18z m-1516 -22 c-5 -18 -7 -19
-10 -4 -2 9 -8 15 -13 12 -5 -3 -6 1 -3 9 9 23 33 8 26 -17z m1070 -9 c-15
-15 -25 -19 -32 -12 -7 7 -3 17 11 33 15 16 24 20 32 12 8 -8 5 -17 -11 -33z
m-1409 -3 c-3 -9 -8 -14 -10 -11 -3 3 -2 9 2 15 9 16 15 13 8 -4z m-263 -5
c18 -12 2 -12 -25 0 -13 6 -15 9 -5 9 8 0 22 -4 30 -9z m960 -14 c0 -8 -7 -16
-15 -20 -12 -4 -13 -2 -2 14 14 24 17 25 17 6z m-182 -70 c4 -28 -1 -30 -33
-15 -19 9 -18 9 3 5 14 -3 22 1 22 10 0 8 -8 14 -18 14 -11 0 -24 11 -30 25
-18 38 -15 40 21 13 19 -15 33 -36 35 -52z m1199 58 c-3 -3 -12 -4 -19 -1 -8
3 -5 6 6 6 11 1 17 -2 13 -5z m-1617 -80 c60 -76 127 -145 137 -142 5 2 28
-11 53 -28 25 -17 88 -51 141 -77 73 -35 98 -52 107 -74 12 -28 12 -28 -5 -6
-13 15 -27 20 -47 18 -19 -2 -39 4 -55 16 -15 12 -28 16 -34 10 -14 -14 1 -31
21 -24 9 3 15 4 12 1 -7 -9 -129 -98 -133 -98 -2 0 -4 7 -4 15 0 8 4 15 9 15
4 0 8 8 8 17 0 13 3 14 12 5 13 -13 52 3 43 19 -4 5 1 9 9 9 19 0 20 5 5 31
-5 11 -14 17 -20 14 -5 -4 -9 1 -9 9 0 9 -5 16 -12 16 -6 0 -8 3 -5 6 4 4 13
1 22 -6 9 -7 18 -10 21 -7 8 7 -96 67 -117 67 -19 0 -109 93 -169 175 -24 33
-47 62 -52 63 -4 2 -8 8 -8 13 0 22 22 4 70 -57z m1260 62 c0 -2 -7 -7 -16
-10 -8 -3 -12 -2 -9 4 6 10 25 14 25 6z m1675 -15 c3 -5 1 -12 -5 -16 -5 -3
-10 1 -10 9 0 18 6 21 15 7z m-1750 -69 c-3 -3 -11 0 -18 7 -9 10 -8 11 6 5
10 -3 15 -9 12 -12z m124 -28 c11 -11 -8 -10 -44 2 l-40 13 40 -5 c22 -3 42
-8 44 -10z m-781 -147 c2 -20 -2 -46 -9 -58 -10 -20 -12 -21 -21 -5 -5 9 -10
39 -12 65 -2 45 0 48 19 41 14 -5 21 -18 23 -43z m1362 -31 c0 -2 -8 -10 -17
-17 -16 -13 -17 -12 -4 4 13 16 21 21 21 13z m-1820 -26 c0 -5 11 -12 25 -16
14 -3 22 -10 19 -15 -3 -5 -10 -7 -15 -4 -5 4 -9 2 -9 -3 0 -6 -9 -8 -20 -5
-11 3 -20 9 -20 14 0 5 -7 9 -15 9 -8 0 -15 7 -15 15 0 9 9 15 25 15 14 0 25
-4 25 -10z m1895 -50 c-3 -5 -12 -10 -18 -10 -7 0 -6 4 3 10 19 12 23 12 15 0z
m-1740 -10 c3 -5 1 -10 -4 -10 -6 0 -11 5 -11 10 0 6 2 10 4 10 3 0 8 -4 11
-10z m3054 -45 c22 -31 41 -59 41 -62 0 -17 -33 -41 -48 -35 -21 7 -42 34 -36
44 3 4 -1 18 -8 30 -13 24 -15 30 -17 52 0 8 -11 17 -23 19 -15 3 -10 5 13 6
33 1 40 -4 78 -54z m-3215 20 c-4 -8 -11 -12 -16 -9 -6 4 -5 10 3 15 19 12 19
11 13 -6z m-160 -63 c3 -5 -1 -9 -9 -9 -8 0 -12 4 -9 9 3 4 7 8 9 8 2 0 6 -4
9 -8z m1072 -31 c-3 -5 -16 -11 -28 -14 -22 -6 -22 -5 -4 8 22 17 40 20 32 6z
m-436 -66 c21 -19 51 -103 40 -110 -4 -3 -11 12 -15 32 -5 27 -9 33 -16 22 -5
-8 -9 -24 -9 -36 0 -13 -4 -23 -10 -23 -14 0 -23 45 -16 74 3 14 2 28 -4 31
-6 3 -7 -1 -4 -9 3 -9 2 -16 -4 -16 -6 0 -12 4 -14 9 -5 15 -61 16 -86 2 -22
-12 -22 -11 -10 11 7 13 18 27 23 31 16 13 106 -1 125 -18z m-375 -45 c-3 -6
1 -7 9 -4 9 3 16 1 16 -5 0 -6 4 -11 10 -11 5 0 6 8 3 18 -6 15 -5 15 10 3 9
-7 17 -22 17 -32 0 -15 -4 -17 -17 -10 -10 6 -30 12 -45 16 -29 6 -39 35 -12
35 8 0 12 -4 9 -10z m-638 -72 c-2 -13 -4 -3 -4 22 0 25 2 35 4 23 2 -13 2
-33 0 -45z m497 53 c4 -5 -3 -7 -14 -4 -23 6 -26 13 -6 13 8 0 17 -4 20 -9z
m368 -53 c-8 -8 -9 -4 -5 13 4 13 8 18 11 10 2 -7 -1 -18 -6 -23z m177 -110
c0 -28 -2 -30 -9 -13 -12 28 -12 45 0 45 6 0 10 -15 9 -32z m758 10 c-3 -8 -6
-5 -6 6 -1 11 2 17 5 13 3 -3 4 -12 1 -19z m1393 -75 c13 -13 11 -13 -15 -2
-40 17 -57 33 -25 24 14 -4 32 -14 40 -22z m-2723 -7 c-6 -15 32 -56 51 -56 7
0 12 -4 12 -10 0 -17 -15 -11 -46 18 -50 46 -56 58 -33 59 14 1 19 -3 16 -11z
m1053 -26 c0 -20 26 -34 42 -23 7 3 8 1 4 -5 -4 -7 -16 -12 -27 -12 -10 0 -19
-6 -20 -12 0 -10 -2 -10 -6 0 -2 6 -9 10 -14 6 -5 -3 -9 0 -9 6 0 7 7 9 17 6
15 -6 15 -4 -2 14 -10 11 -13 20 -7 20 7 0 9 7 5 17 -4 11 -3 14 5 9 7 -4 12
-15 12 -26z m-860 -11 c13 -9 13 -10 -2 -6 -9 3 -26 -3 -39 -14 -31 -27 -37
-24 -9 6 26 28 29 29 50 14z m265 1 c-4 -6 -32 -29 -63 -52 -31 -23 -79 -63
-106 -88 -50 -45 -50 -45 -20 -7 16 21 56 58 90 82 33 24 66 50 73 59 15 18
36 22 26 6z m-287 -40 c-7 -10 -14 -17 -17 -15 -4 4 18 35 25 35 2 0 -1 -9 -8
-20z m557 -10 c3 -5 -1 -10 -10 -10 -9 0 -13 5 -10 10 3 6 8 10 10 10 2 0 7
-4 10 -10z m-1194 -37 c-4 -28 -6 -32 -9 -15 -3 22 3 52 11 52 1 0 1 -17 -2
-37z m1154 27 c-3 -5 -10 -10 -16 -10 -5 0 -9 5 -9 10 0 6 7 10 16 10 8 0 12
-4 9 -10z m-1593 -40 c21 -18 38 -25 40 -19 13 38 328 -195 328 -241 0 -3 -30
-1 -66 5 -62 10 -71 15 -120 65 -29 29 -51 57 -48 62 3 4 -1 8 -9 8 -7 0 -22
8 -33 18 -10 10 -47 43 -81 75 -66 60 -73 78 -11 27z m1628 -2 c0 -5 -9 -12
-20 -15 -30 -8 -26 -33 4 -27 37 6 41 -12 6 -28 -16 -7 -30 -19 -30 -25 0 -7
-4 -13 -10 -13 -12 0 -1 93 12 98 4 2 8 10 8 18 0 8 6 11 15 8 8 -4 15 -11 15
-16z m-1193 -105 c-2 -16 -4 -5 -4 22 0 28 2 40 4 28 2 -13 2 -35 0 -50z
m3109 -24 c3 -6 1 -16 -6 -22 -7 -7 -10 -7 -7 -2 3 6 2 17 -4 25 -7 13 -9 13
-9 0 0 -13 -1 -13 -10 0 -5 8 -10 19 -10 23 0 10 37 -9 46 -24z m-1836 11 c11
-7 7 -10 -17 -10 -26 0 -36 -6 -48 -30 -23 -44 -18 -75 16 -115 37 -42 51 -43
78 -9 12 15 21 22 21 17 0 -5 -11 -20 -24 -32 -33 -32 -69 -20 -106 36 -17 24
-30 47 -30 51 0 4 5 0 10 -8 7 -11 10 -6 10 20 1 35 23 72 50 83 21 8 23 8 40
-3z m-140 -30 c0 -16 -4 -30 -8 -30 -5 0 -7 14 -4 30 2 17 6 30 8 30 2 0 4
-13 4 -30z m-540 5 c-7 -8 -17 -15 -23 -15 -6 0 -2 7 9 15 25 19 30 19 14 0z
m2444 -61 c3 -8 2 -12 -4 -9 -6 3 -10 10 -10 16 0 14 7 11 14 -7z m-3027 -126
c-2 -24 -4 -5 -4 42 0 47 2 66 4 43 2 -24 2 -62 0 -85z m2353 78 c0 -3 -4 -8
-10 -11 -5 -3 -10 -1 -10 4 0 6 5 11 10 11 6 0 10 -2 10 -4z m-1122 -187 c-10
-5 -18 -19 -18 -29 0 -11 -4 -19 -10 -17 -5 1 -21 -11 -34 -28 l-25 -30 11 32
c7 17 14 31 17 30 4 -1 7 2 8 6 3 12 46 46 58 46 6 0 2 -4 -7 -10z m219 -31
c-3 -7 -5 -2 -5 12 0 14 2 19 5 13 2 -7 2 -19 0 -25z m-1439 -149 c-18 -11
-23 -2 -8 16 7 9 10 18 6 22 -3 3 -6 1 -6 -5 0 -7 -4 -12 -9 -12 -6 0 -6 12 0
32 5 18 10 51 10 73 1 25 5 10 11 -39 7 -61 6 -81 -4 -87z m766 99 c-3 -4 -1
-8 5 -8 6 0 18 -15 26 -32 16 -33 16 -33 -19 6 -18 22 -32 46 -29 54 5 11 7
11 14 1 4 -7 5 -17 3 -21z m806 10 c19 -6 53 -31 76 -56 34 -37 46 -44 79 -44
40 0 55 13 55 49 0 12 4 24 9 28 11 6 221 -52 235 -65 5 -6 4 -15 -3 -24 -6
-8 -8 -16 -4 -18 5 -1 6 -16 2 -33 -4 -19 -7 -23 -8 -10 -1 12 -4 16 -9 9 -5
-7 -15 -6 -32 3 -16 8 -19 13 -9 13 11 0 16 9 15 28 -1 24 -5 27 -36 29 -19 1
-39 -2 -45 -7 -7 -6 -11 -2 -11 9 0 12 6 17 16 14 13 -4 13 -3 0 5 -8 6 -30
12 -49 15 -28 5 -38 1 -60 -23 -50 -55 -94 -49 -161 19 -35 36 -93 61 -141 61
-13 0 -30 4 -38 9 -18 12 73 3 119 -11z m1370 -28 c0 -5 -4 -10 -10 -10 -5 0
-10 5 -10 10 0 6 5 10 10 10 6 0 10 -4 10 -10z m-3180 -13 c0 -2 -10 -12 -22
-23 l-23 -19 19 23 c18 21 26 27 26 19z m190 -59 c15 -21 17 -28 6 -19 -16 13
-41 51 -33 51 2 0 14 -15 27 -32z m2910 -4 c0 -8 -5 -12 -10 -9 -6 4 -8 11 -5
16 9 14 15 11 15 -7z m-3080 -18 c0 -2 -8 -10 -17 -17 -16 -13 -17 -12 -4 4
13 16 21 21 21 13z m279 -183 c63 -160 178 -339 281 -437 44 -42 57 -61 53
-76 -5 -18 -1 -20 34 -20 63 0 103 -18 103 -46 0 -21 -5 -24 -35 -24 -21 0
-37 6 -43 16 -8 14 -14 14 -63 1 -99 -28 -109 -29 -103 -12 4 8 11 15 16 15
11 0 37 29 38 42 0 14 -39 18 -64 7 -20 -9 -32 -9 -51 -1 -14 7 -25 8 -25 2 0
-5 -10 -18 -22 -30 -15 -14 -18 -20 -7 -20 12 -1 12 -2 -1 -9 -12 -8 -117 -16
-142 -12 -5 0 -10 0 -13 -1 -2 -2 -12 7 -20 20 -9 12 -26 22 -38 23 -21 0 -21
1 -2 8 19 8 18 9 -5 13 l-25 5 27 2 c16 0 31 -6 37 -16 8 -13 10 -14 11 -4 0
26 -42 61 -73 61 l-30 0 6 57 c5 46 2 61 -14 81 -10 14 -19 31 -19 39 0 10 -6
13 -17 8 -10 -3 -3 8 16 24 19 17 30 31 24 31 -6 0 -9 9 -6 20 3 11 9 20 13
20 15 0 18 39 4 58 -10 15 -10 19 -1 18 6 0 14 4 15 9 2 6 9 16 15 24 9 11 9
15 0 18 -15 5 -17 52 -3 73 5 8 10 12 10 8 0 -3 3 -15 6 -25 5 -15 4 -15 -5
-3 -9 13 -11 12 -11 -6 0 -29 25 -38 28 -10 0 11 10 28 22 38 11 9 20 21 20
26 0 5 7 15 15 22 8 7 15 17 15 22 0 6 -7 5 -15 -2 -18 -15 -19 -7 -4 21 7 13
7 24 1 32 -6 7 -7 26 -4 42 5 26 8 21 18 -35 7 -36 22 -88 33 -117z m-162 145
c-3 -8 -6 -5 -6 6 -1 11 2 17 5 13 3 -3 4 -12 1 -19z m1408 2 c23 -8 10 -9
-57 -6 -94 4 -102 1 -119 -51 -8 -25 -8 -24 -4 9 3 20 1 39 -5 43 -6 3 -7 11
-4 17 8 12 141 4 189 -12z m1692 -12 c-3 -8 -6 -5 -6 6 -1 11 2 17 5 13 3 -3
4 -12 1 -19z m-2996 -28 c5 0 9 -5 9 -11 0 -8 -5 -8 -15 1 -8 7 -14 20 -14 29
1 13 2 13 6 -1 2 -10 9 -18 14 -18z m1909 20 c0 -3 -10 -14 -21 -24 -15 -13
-24 -15 -32 -7 -8 8 -7 11 2 11 11 0 11 3 1 15 -11 13 -9 15 19 13 17 -1 31
-5 31 -8z m527 -37 c-3 -10 -5 -4 -5 12 0 17 2 24 5 18 2 -7 2 -21 0 -30z
m-445 15 c-7 -7 -13 -26 -13 -42 l-1 -31 -7 30 c-5 21 -2 34 9 42 20 16 27 16
12 1z m1033 2 c-3 -5 -12 -10 -18 -10 -7 0 -6 4 3 10 19 12 23 12 15 0z
m-1780 -20 c-3 -5 -13 -10 -21 -10 -8 0 -12 5 -9 10 3 6 13 10 21 10 8 0 12
-4 9 -10z m765 -32 c0 -18 -2 -20 -9 -8 -6 8 -7 18 -5 22 9 14 14 9 14 -14z
m1018 -19 c-3 -20 -5 -19 -9 9 -3 20 -2 29 4 23 5 -5 7 -19 5 -32z m-1908 -59
c-10 -23 -10 -22 -5 9 3 18 6 43 7 55 1 12 3 9 5 -9 2 -17 -1 -42 -7 -55z
m877 28 c-3 -8 -6 -5 -6 6 -1 11 2 17 5 13 3 -3 4 -12 1 -19z m-54 -68 c-3
-12 -8 -19 -11 -16 -5 6 5 36 12 36 2 0 2 -9 -1 -20z m-1090 3 c-7 -2 -21 -2
-30 0 -10 3 -4 5 12 5 17 0 24 -2 18 -5z m2640 -65 c4 -34 3 -56 -5 -63 -7 -7
-9 -7 -5 1 4 6 3 34 -2 62 -4 29 -5 52 -1 52 4 0 10 -23 13 -52z m-2209 -107
c-2 -3 -12 3 -22 13 -16 17 -16 18 5 5 12 -7 20 -15 17 -18z m116 -1 c-8 -5
-22 -9 -30 -9 -10 0 -8 3 5 9 27 12 43 12 25 0z m-60 -10 c0 -13 -11 -13 -30
0 -12 8 -11 10 8 10 12 0 22 -4 22 -10z m-1623 -136 c-36 -36 -71 -63 -76 -59
-6 3 -11 1 -11 -5 0 -6 -12 -15 -26 -20 -21 -8 -25 -15 -20 -34 5 -20 3 -23
-20 -18 -16 3 -23 9 -20 18 3 8 1 14 -4 14 -6 0 -10 -7 -10 -15 0 -18 -37 -20
-54 -2 -8 7 -17 23 -20 35 -5 15 -15 22 -32 22 -14 0 -22 4 -19 10 3 6 2 10
-2 10 -5 0 -18 7 -29 15 -16 13 -16 14 -1 9 9 -3 17 -1 17 4 0 6 -8 16 -17 21
-10 6 -13 11 -6 11 6 0 25 -17 42 -37 17 -21 30 -32 31 -25 0 6 -4 12 -10 12
-25 0 -7 15 20 16 16 1 27 -3 23 -8 -3 -6 4 -5 16 1 12 7 21 8 21 2 0 -5 9 -9
20 -8 11 1 20 5 20 9 0 4 15 6 34 4 21 -1 32 2 29 8 -4 5 0 7 9 3 9 -3 25 1
37 9 12 8 25 13 30 10 5 -3 26 8 46 24 59 47 53 36 -18 -36z m3913 -19 c0 -8
-4 -15 -10 -15 -5 0 -7 7 -4 15 4 8 8 15 10 15 2 0 4 -7 4 -15z m-4370 -75
c13 -9 13 -10 0 -10 -8 0 -22 5 -30 10 -13 9 -13 10 0 10 8 0 22 -5 30 -10z
m220 -64 c0 -3 -4 -8 -10 -11 -5 -3 -10 -1 -10 4 0 6 5 11 10 11 6 0 10 -2 10
-4z m740 -16 c0 -5 -4 -10 -10 -10 -5 0 -10 5 -10 10 0 6 5 10 10 10 6 0 10
-4 10 -10z m-380 -11 c0 -5 -5 -7 -12 -3 -7 5 -8 3 -4 -5 5 -7 14 -10 22 -7 8
3 11 0 7 -9 -4 -11 -10 -12 -25 -4 -16 8 -23 8 -29 -2 -4 -7 -11 -10 -15 -6
-9 9 25 47 43 47 7 0 13 -5 13 -11z m417 -5 c-3 -3 -12 -4 -19 -1 -8 3 -5 6 6
6 11 1 17 -2 13 -5z m-27 -25 c0 -4 8 -6 18 -3 14 5 15 4 2 -5 -29 -21 -71 -7
-55 19 7 11 35 2 35 -11z m1710 6 c0 -2 -15 -12 -32 -20 l-33 -16 25 20 c24
20 40 26 40 16z m-2336 -27 c-3 -4 -9 -8 -15 -8 -5 0 -9 4 -9 8 0 5 7 9 15 9
8 0 12 -4 9 -9z m106 2 c0 -5 -2 -10 -4 -10 -3 0 -8 5 -11 10 -3 6 -1 10 4 10
6 0 11 -4 11 -10z m93 -7 c-7 -2 -21 -2 -30 0 -10 3 -4 5 12 5 17 0 24 -2 18
-5z m2102 -23 c3 -5 2 -10 -4 -10 -5 0 -13 5 -16 10 -3 6 -2 10 4 10 5 0 13
-4 16 -10z m475 5 c0 -7 -39 -12 -49 -5 -7 4 1 7 18 8 17 0 31 -1 31 -3z m230
-15 c0 -6 -12 -15 -27 -21 -15 -6 -31 -15 -35 -22 -4 -6 -10 -8 -14 -4 -4 3
-2 13 5 21 9 11 9 15 -1 19 -7 3 2 5 20 4 18 0 35 3 39 6 9 10 13 9 13 -3z
m115 0 c-3 -5 -12 -10 -18 -10 -7 0 -6 4 3 10 19 12 23 12 15 0z m818 -17 c-7
-2 -19 -2 -25 0 -7 3 -2 5 12 5 14 0 19 -2 13 -5z m-773 -13 c0 -5 -2 -10 -4
-10 -3 0 -8 5 -11 10 -3 6 -1 10 4 10 6 0 11 -4 11 -10z m-230 -36 c0 -2 -7
-4 -15 -4 -8 0 -15 4 -15 10 0 5 7 7 15 4 8 -4 15 -8 15 -10z m123 5 c53 -14
46 -26 -15 -22 -57 3 -70 9 -48 23 19 12 17 12 63 -1z m-226 -5 c-3 -3 -12 -4
-19 -1 -8 3 -5 6 6 6 11 1 17 -2 13 -5z m-464 -11 c-7 -2 -19 -2 -25 0 -7 3
-2 5 12 5 14 0 19 -2 13 -5z m597 3 c0 -3 -4 -8 -10 -11 -5 -3 -10 -1 -10 4 0
6 5 11 10 11 6 0 10 -2 10 -4z m-2009 -52 c27 -29 29 -33 9 -21 -28 18 -71 19
-82 2 -5 -6 -8 -6 -8 2 0 9 37 53 45 53 1 0 17 -16 36 -36z m1873 21 c-7 -16
-54 -21 -54 -6 0 5 10 12 23 14 12 2 25 5 29 6 4 0 5 -6 2 -14z m-198 -10
c-11 -8 -27 -15 -35 -15 -9 1 -2 7 14 15 39 18 44 18 21 0z m-698 -2 c-10 -2
-26 -2 -35 0 -10 3 -2 5 17 5 19 0 27 -2 18 -5z m-931 -9 c-3 -3 -12 -4 -19
-1 -8 3 -5 6 6 6 11 1 17 -2 13 -5z m413 -3 c-28 -16 -60 -22 -60 -12 0 10 22
18 55 20 16 0 17 -1 5 -8z m90 -10 c0 -3 -13 -6 -29 -6 -21 0 -27 3 -20 11 10
12 49 8 49 -5z m340 9 c0 -5 -22 -7 -52 -3 -72 8 -73 13 -5 13 32 0 57 -4 57
-10z m588 0 c-24 -14 -131 -24 -165 -15 l-28 8 25 7 c41 11 188 11 168 0z
m117 0 c27 -7 27 -8 5 -8 -14 0 -36 4 -50 8 -20 6 -21 8 -5 8 11 0 34 -4 50
-8z m-365 -7 c-28 -5 -50 -21 -50 -35 0 -12 63 -38 95 -38 14 0 25 -4 25 -8 0
-5 14 -6 31 -4 17 3 27 7 22 11 -17 11 -21 48 -7 49 61 4 224 1 240 -5 17 -6
17 -8 -6 -15 -22 -6 -21 -7 10 -6 19 0 46 -4 59 -9 l25 -10 -25 -25 c-19 -19
-45 -29 -100 -39 -57 -10 -66 -14 -41 -17 17 -2 32 -7 32 -13 0 -5 -15 -10
-32 -10 -18 -1 -43 -3 -55 -4 -13 -1 -23 3 -23 10 0 16 -59 28 -74 16 -15 -12
-130 -33 -170 -30 -89 6 -339 -2 -331 -10 6 -6 35 -12 65 -14 34 -2 18 -4 -40
-4 -52 -1 -104 2 -115 7 -19 8 -19 9 3 9 37 1 14 21 -24 21 -19 0 -34 4 -34 8
0 5 -22 7 -50 6 -27 -2 -52 1 -55 6 -3 6 -19 10 -35 10 -40 0 -60 9 -60 29 0
9 -17 26 -38 38 l-37 22 35 -6 c19 -3 36 -9 38 -13 1 -3 16 -4 33 -2 29 4 102
-13 124 -29 19 -14 109 -8 128 8 24 22 22 29 -13 43 -17 7 -28 15 -26 18 3 2
55 6 116 8 62 2 117 7 123 11 7 4 32 10 57 14 51 7 219 9 180 2z m-611 -7 c-2
-2 -17 -6 -34 -10 -22 -5 -26 -4 -15 4 14 9 59 15 49 6z m-266 -13 c-7 -2 -19
-2 -25 0 -7 3 -2 5 12 5 14 0 19 -2 13 -5z m-403 -24 c0 -8 -114 -18 -160 -14
-71 7 -74 8 -40 14 45 8 200 8 200 0z m193 4 c-7 -2 -19 -2 -25 0 -7 3 -2 5
12 5 14 0 19 -2 13 -5z m157 -3 c-14 -4 -37 -8 -52 -9 -15 -1 -31 -8 -36 -17
-8 -14 -11 -14 -27 3 -18 17 -17 18 36 24 30 3 65 6 79 6 l25 1 -25 -8z m-6
-55 c-10 -8 -23 -15 -28 -15 -6 0 -1 7 10 15 10 8 23 15 28 15 6 0 1 -7 -10
-15z m-254 -25 c0 -5 -2 -10 -4 -10 -3 0 -8 5 -11 10 -3 6 -1 10 4 10 6 0 11
-4 11 -10z m218 -17 c-10 -2 -26 -2 -35 0 -10 3 -2 5 17 5 19 0 27 -2 18 -5z
m67 -3 c4 -6 61 -11 133 -12 116 -1 121 -2 57 -9 -38 -4 -83 -10 -98 -14 -15
-4 -48 -2 -75 5 -58 16 -64 19 -57 31 8 12 32 12 40 -1z m1260 0 c-3 -6 4 -14
17 -19 21 -7 20 -9 -13 -12 -36 -5 -36 -4 -22 18 15 22 31 34 18 13z m-1291
-45 c-21 -16 -80 -20 -88 -6 -8 13 12 19 63 20 42 1 43 0 25 -14z m396 -6 c10
-7 -18 -8 -95 -3 -60 3 -112 8 -114 10 -10 9 196 3 209 -7z m-152 -26 c-16 -2
-40 -2 -55 0 -16 2 -3 4 27 4 30 0 43 -2 28 -4z"/>
<path d="M3610 4636 c0 -7 9 -16 20 -19 11 -3 20 -4 20 -3 0 1 -9 9 -20 19
-15 13 -20 14 -20 3z"/>
<path d="M3607 4562 c3 -7 9 -10 12 -5 3 4 10 11 15 15 4 4 -1 6 -12 5 -12 -1
-18 -6 -15 -15z"/>
<path d="M3521 3701 c-11 -7 -10 -11 5 -19 33 -18 11 -21 -51 -6 -33 7 -71 13
-85 13 -29 0 104 -38 137 -38 27 -1 47 31 31 47 -14 14 -19 14 -37 3z"/>
<path d="M3613 3665 c-3 -9 -3 -18 -1 -21 3 -3 8 4 11 16 6 23 -1 27 -10 5z"/>
<path d="M3652 3608 c-17 -17 -15 -25 8 -31 16 -4 18 -2 10 13 -5 9 -6 20 -3
24 3 3 4 6 2 6 -3 0 -10 -5 -17 -12z"/>
<path d="M3536 3542 c4 -26 12 -52 19 -57 16 -13 45 -97 45 -130 0 -20 -6 -25
-35 -31 -32 -6 -35 -9 -33 -38 3 -58 23 -83 70 -89 26 -4 44 -2 47 5 2 6 12
17 22 26 11 10 15 19 8 22 -6 4 0 14 15 23 23 16 25 16 31 -3 5 -16 10 -17 31
-8 29 14 30 22 4 48 -22 22 -26 45 -10 55 15 9 12 25 -5 25 -8 0 -14 -3 -13
-7 1 -5 -4 -21 -10 -36 -7 -16 -12 -33 -12 -39 0 -6 -3 -8 -6 -5 -4 3 -16 1
-27 -4 -33 -18 -63 5 -64 50 -1 20 -11 61 -22 89 l-21 52 25 0 c17 0 23 5 22
19 0 11 -4 18 -8 15 -9 -5 -50 46 -45 55 3 4 -4 7 -14 8 -17 2 -19 -3 -14 -45z"/>
<path d="M3501 3464 c0 -11 3 -14 6 -6 3 7 2 16 -1 19 -3 4 -6 -2 -5 -13z"/>
<path d="M3727 3433 c-13 -12 -7 -22 10 -16 11 4 14 3 9 -5 -4 -7 -2 -12 3
-12 13 0 13 3 5 24 -7 17 -16 20 -27 9z"/>
<path d="M3842 3283 c1 -5 -4 -21 -10 -36 -15 -35 -15 -47 -1 -47 5 0 8 4 5 9
-3 4 1 17 9 27 17 22 20 54 5 54 -5 0 -9 -3 -8 -7z"/>
<path d="M3850 3169 c0 -9 -7 -20 -16 -23 -9 -3 -14 -13 -10 -21 3 -8 -3 -19
-12 -24 -16 -9 -16 -11 -1 -26 13 -13 21 -15 37 -6 29 15 35 42 18 82 -9 19
-15 27 -16 18z"/>
<path d="M3770 3053 c13 -18 25 -33 27 -33 8 0 -17 38 -33 51 -11 9 -9 2 6
-18z"/>
<path d="M3945 2970 c3 -5 10 -10 16 -10 5 0 9 5 9 10 0 6 -7 10 -16 10 -8 0
-12 -4 -9 -10z"/>
<path d="M3921 2836 c-9 -10 -8 -16 4 -26 20 -16 45 -6 45 20 0 23 -31 28 -49
6z"/>
<path d="M4015 2830 c3 -5 10 -10 16 -10 5 0 9 5 9 10 0 6 -7 10 -16 10 -8 0
-12 -4 -9 -10z"/>
<path d="M3781 2435 c-29 -34 -40 -64 -23 -66 4 0 15 -2 25 -4 9 -2 17 0 18 3
0 4 2 16 4 27 9 47 12 75 10 75 -2 0 -17 -16 -34 -35z"/>
<path d="M3970 2455 c0 -2 10 -10 23 -16 20 -11 21 -11 8 4 -13 16 -31 23 -31
12z"/>
<path d="M4040 2400 c6 -10 7 -26 4 -34 -3 -9 -1 -16 5 -16 6 0 11 7 11 15 0
8 4 15 9 15 22 0 6 35 -16 36 -19 2 -21 -1 -13 -16z"/>
<path d="M3941 2386 c-1 -24 1 -27 14 -16 16 14 21 25 6 15 -5 -3 -12 3 -14
12 -3 11 -5 6 -6 -11z"/>
<path d="M3763 2341 c1 -11 7 -17 14 -14 17 7 17 20 -1 26 -10 4 -14 0 -13
-12z"/>
<path d="M3892 2258 c-15 -15 -15 -28 -1 -28 11 0 39 24 39 34 0 11 -26 6 -38
-6z"/>
<path d="M4005 2251 c-3 -7 -3 -16 0 -19 3 -3 5 0 5 7 0 7 6 11 14 8 8 -3 16
0 19 6 3 7 -3 13 -14 13 -10 0 -21 -7 -24 -15z"/>
<path d="M4074 2156 c-4 -10 -2 -22 4 -28 8 -8 13 -7 18 6 4 10 2 22 -4 28 -8
8 -13 7 -18 -6z"/>
<path d="M4141 2154 c0 -11 3 -14 6 -6 3 7 2 16 -1 19 -3 4 -6 -2 -5 -13z"/>
<path d="M4056 2067 c3 -10 9 -15 12 -12 3 3 0 11 -7 18 -10 9 -11 8 -5 -6z"/>
<path d="M4070 2015 c0 -8 5 -15 10 -15 6 0 10 7 10 15 0 8 -4 15 -10 15 -5 0
-10 -7 -10 -15z"/>
<path d="M4030 1960 c0 -5 10 -15 23 -21 22 -12 22 -12 3 10 -21 23 -26 26
-26 11z"/>
<path d="M4060 1890 c0 -5 5 -10 10 -10 6 0 10 5 10 10 0 6 -4 10 -10 10 -5 0
-10 -4 -10 -10z"/>
<path d="M3996 1842 c-3 -6 -1 -14 5 -17 15 -10 25 3 12 16 -7 7 -13 7 -17 1z"/>
<path d="M3822 1815 c0 -16 2 -22 5 -12 2 9 2 23 0 30 -3 6 -5 -1 -5 -18z"/>
<path d="M4062 1689 c1 -13 8 -23 13 -21 15 3 12 35 -3 40 -9 3 -13 -3 -10
-19z"/>
<path d="M3988 1643 c6 -2 18 -2 25 0 6 3 1 5 -13 5 -14 0 -19 -2 -12 -5z"/>
<path d="M4157 1631 c-3 -14 -1 -18 9 -14 16 6 18 19 5 27 -5 3 -11 -3 -14
-13z"/>
<path d="M3946 1583 c-6 -14 -5 -15 5 -6 7 7 10 15 7 18 -3 3 -9 -2 -12 -12z"/>
<path d="M4147 1583 c-4 -3 -7 -16 -6 -27 0 -19 1 -19 10 3 10 24 8 36 -4 24z"/>
<path d="M3917 1553 c-13 -13 -7 -21 13 -16 11 3 20 9 20 14 0 10 -24 12 -33
2z"/>
<path d="M4060 1551 c0 -5 -3 -17 -7 -27 -4 -12 -2 -15 8 -12 8 3 14 11 14 19
0 8 5 17 10 21 6 4 2 8 -7 8 -10 0 -18 -4 -18 -9z"/>
<path d="M4170 1331 c0 -10 30 -24 37 -17 3 2 -5 9 -16 16 -12 6 -21 7 -21 1z"/>
<path d="M3990 1322 c0 -14 11 -21 26 -15 21 8 17 23 -6 23 -11 0 -20 -4 -20
-8z"/>
<path d="M3777 1283 c-4 -3 -7 -13 -7 -22 1 -13 3 -13 11 2 11 19 8 33 -4 20z"/>
<path d="M3915 1178 c-11 -27 -20 -176 -15 -236 5 -60 7 -66 49 -101 l44 -38
29 25 c15 14 28 35 28 48 0 12 16 41 35 64 47 56 45 82 -9 134 -24 24 -50 59
-57 79 -12 35 -16 37 -56 37 -26 0 -46 -5 -48 -12z"/>
<path d="M3710 1151 c-12 -24 -13 -34 -1 -27 9 6 22 46 15 46 -2 0 -8 -9 -14
-19z"/>
<path d="M3643 1083 c1 -15 5 -19 13 -13 6 6 13 7 16 4 3 -2 8 2 12 11 4 13 2
14 -13 5 -14 -7 -21 -6 -24 3 -3 6 -4 2 -4 -10z"/>
<path d="M3587 873 c-4 -3 -7 -12 -7 -20 0 -15 26 -18 34 -4 7 11 -18 33 -27
24z"/>
<path d="M3670 823 c-22 -20 -40 -41 -40 -45 0 -4 10 -13 23 -19 18 -9 20 -9
10 2 -20 21 -15 29 12 19 20 -8 27 -5 40 13 17 24 20 67 5 67 -5 0 -27 -17
-50 -37z"/>
<path d="M4421 784 c0 -11 3 -14 6 -6 3 7 2 16 -1 19 -3 4 -6 -2 -5 -13z"/>
<path d="M3490 766 c0 -2 7 -7 16 -10 8 -3 12 -2 9 4 -6 10 -25 14 -25 6z"/>
<path d="M3550 745 c-8 -9 -8 -15 -2 -15 12 0 26 19 19 26 -2 2 -10 -2 -17
-11z"/>
<path d="M4605 740 c-3 -5 -1 -10 4 -10 6 0 11 5 11 10 0 6 -2 10 -4 10 -3 0
-8 -4 -11 -10z"/>
<path d="M3727 711 c-26 -6 -27 -7 -12 -28 8 -12 24 -21 35 -20 15 1 18 6 13
27 -7 30 -2 27 -36 21z"/>
<path d="M4465 700 c-4 -6 12 -10 39 -10 25 0 46 5 46 10 0 6 -18 10 -39 10
-22 0 -43 -4 -46 -10z"/>
<path d="M4235 682 c-35 -18 -31 -26 8 -18 30 5 31 5 12 -10 -17 -13 -18 -16
-5 -24 18 -12 100 -13 117 -2 18 12 -21 42 -53 42 -22 0 -24 3 -15 14 10 11 7
14 -14 12 -14 0 -37 -7 -50 -14z"/>
<path d="M3430 666 c0 -2 7 -7 16 -10 8 -3 12 -2 9 4 -6 10 -25 14 -25 6z"/>
<path d="M3636 655 c4 -8 12 -15 20 -15 20 0 17 7 -6 20 -16 9 -18 8 -14 -5z"/>
<path d="M3545 600 c-3 -6 1 -7 9 -4 18 7 21 14 7 14 -6 0 -13 -4 -16 -10z"/>
<path d="M4420 541 c0 -6 4 -13 10 -16 6 -3 7 1 4 9 -7 18 -14 21 -14 7z"/>
<path d="M4100 450 c-13 -9 -13 -10 0 -10 8 0 22 5 30 10 13 9 13 10 0 10 -8
0 -22 -5 -30 -10z"/>
<path d="M3980 428 c-24 -11 -22 -12 25 -21 28 -5 54 -15 58 -21 6 -8 10 -7
14 2 2 6 14 12 24 12 11 0 18 4 14 10 -3 5 -12 7 -20 4 -8 -3 -24 1 -37 10
-26 18 -43 19 -78 4z"/>
<path d="M3780 409 c0 -5 11 -9 25 -9 14 0 25 2 25 4 0 2 -11 6 -25 8 -14 3
-25 1 -25 -3z"/>
<path d="M4165 410 c3 -5 12 -7 20 -3 21 7 19 13 -6 13 -11 0 -18 -4 -14 -10z"/>
<path d="M4266 4367 c3 -10 9 -15 12 -12 3 3 0 11 -7 18 -10 9 -11 8 -5 -6z"/>
<path d="M4240 4341 c0 -6 5 -13 10 -16 6 -3 10 1 10 9 0 9 -4 16 -10 16 -5 0
-10 -4 -10 -9z"/>
<path d="M4160 4317 c0 -8 7 -30 15 -48 12 -29 14 -30 15 -11 0 14 4 21 11 17
14 -9 -15 -51 -33 -47 -7 2 -10 0 -5 -4 4 -4 -1 -17 -10 -28 -18 -21 -18 -21
2 -5 11 9 25 15 31 12 6 -2 19 12 29 30 17 32 17 35 0 60 -9 15 -22 27 -27 27
-6 0 -7 -5 -2 -13 5 -7 1 -4 -8 6 -14 15 -18 16 -18 4z"/>
<path d="M4100 4206 c0 -8 4 -17 8 -20 4 -2 8 4 8 15 0 10 -4 19 -8 19 -4 0
-8 -6 -8 -14z"/>
<path d="M4165 4180 c-3 -5 -1 -10 4 -10 6 0 11 5 11 10 0 6 -2 10 -4 10 -3 0
-8 -4 -11 -10z"/>
<path d="M2525 4170 c3 -5 16 -10 28 -10 18 0 19 2 7 10 -20 13 -43 13 -35 0z"/>
<path d="M2440 4145 c0 -8 5 -15 10 -15 6 0 10 7 10 15 0 8 -4 15 -10 15 -5 0
-10 -7 -10 -15z"/>
<path d="M2400 4139 c0 -5 5 -7 10 -4 6 3 10 8 10 11 0 2 -4 4 -10 4 -5 0 -10
-5 -10 -11z"/>
<path d="M2675 4140 c-3 -5 -1 -10 4 -10 6 0 11 5 11 10 0 6 -2 10 -4 10 -3 0
-8 -4 -11 -10z"/>
<path d="M2758 4143 c6 -2 18 -2 25 0 6 3 1 5 -13 5 -14 0 -19 -2 -12 -5z"/>
<path d="M2337 4133 c-4 -3 -7 -11 -7 -17 0 -6 5 -5 12 2 6 6 9 14 7 17 -3 3
-9 2 -12 -2z"/>
<path d="M2850 4091 c0 -5 5 -13 10 -16 6 -3 10 -2 10 4 0 5 -4 13 -10 16 -5
3 -10 2 -10 -4z"/>
<path d="M2580 4080 c0 -5 5 -10 10 -10 6 0 10 5 10 10 0 6 -4 10 -10 10 -5 0
-10 -4 -10 -10z"/>
<path d="M2205 4040 c3 -5 8 -10 11 -10 2 0 4 5 4 10 0 6 -5 10 -11 10 -5 0
-7 -4 -4 -10z"/>
<path d="M2882 4020 c0 -14 2 -19 5 -12 2 6 2 18 0 25 -3 6 -5 1 -5 -13z"/>
<path d="M2397 4018 c-5 -15 13 -58 24 -58 5 0 6 6 3 14 -3 8 -1 17 5 21 6 3
11 13 11 21 0 17 -37 19 -43 2z"/>
<path d="M2140 3999 c0 -5 5 -7 10 -4 6 3 10 8 10 11 0 2 -4 4 -10 4 -5 0 -10
-5 -10 -11z"/>
<path d="M2506 4001 c-4 -7 -5 -15 -2 -18 9 -9 19 4 14 18 -4 11 -6 11 -12 0z"/>
<path d="M2330 3950 c0 -5 5 -10 11 -10 5 0 7 5 4 10 -3 6 -8 10 -11 10 -2 0
-4 -4 -4 -10z"/>
<path d="M2645 3940 c3 -5 8 -10 11 -10 2 0 4 5 4 10 0 6 -5 10 -11 10 -5 0
-7 -4 -4 -10z"/>
<path d="M2545 3910 c-3 -5 1 -10 9 -10 9 0 16 5 16 10 0 6 -4 10 -9 10 -6 0
-13 -4 -16 -10z"/>
<path d="M2435 3902 c-6 -4 -19 -20 -29 -37 -10 -16 -15 -27 -11 -23 5 4 14 3
21 -3 8 -7 14 -6 19 2 4 6 1 15 -6 20 -12 7 -11 9 1 10 8 1 18 1 21 1 4 -1 5
8 2 18 -3 11 -6 20 -7 20 0 0 -6 -4 -11 -8z"/>
<path d="M2687 3893 c-10 -9 -8 -53 2 -53 16 0 31 27 25 44 -6 17 -16 20 -27
9z"/>
<path d="M2770 3859 c0 -5 5 -7 10 -4 6 3 10 8 10 11 0 2 -4 4 -10 4 -5 0 -10
-5 -10 -11z"/>
<path d="M2250 3836 c0 -9 5 -16 10 -16 6 0 10 4 10 9 0 6 -4 13 -10 16 -5 3
-10 -1 -10 -9z"/>
<path d="M2870 3825 c0 -8 5 -15 10 -15 6 0 10 -11 10 -25 0 -32 12 -32 27 2
9 19 10 30 2 40 -15 18 -49 17 -49 -2z"/>
<path d="M2440 3792 c0 -5 8 -17 19 -26 17 -16 19 -16 24 3 2 11 2 22 -1 25
-9 9 -42 7 -42 -2z"/>
<path d="M2123 3747 c-10 -21 -9 -28 3 -38 21 -17 28 -4 18 32 l-9 32 -12 -26z"/>
<path d="M2976 3754 c-8 -22 -7 -52 2 -58 4 -3 8 13 9 35 1 42 -2 48 -11 23z"/>
<path d="M2637 3739 c-6 -23 4 -53 26 -81 20 -26 28 -22 22 10 -3 15 -2 21 1
15 3 -7 10 -13 15 -13 10 0 -9 48 -29 73 -20 22 -28 22 -35 -4z"/>
<path d="M2760 3744 c0 -8 5 -12 10 -9 6 3 10 10 10 16 0 5 -4 9 -10 9 -5 0
-10 -7 -10 -16z"/>
<path d="M2395 3740 c-3 -5 -2 -10 4 -10 5 0 13 5 16 10 3 6 2 10 -4 10 -5 0
-13 -4 -16 -10z"/>
<path d="M2798 3714 c-8 -12 9 -54 21 -54 19 0 21 18 3 41 -11 12 -21 18 -24
13z"/>
<path d="M2454 3675 c-20 -30 -12 -71 15 -80 25 -8 33 -29 20 -61 -5 -15 -8
-29 -5 -31 5 -6 26 56 26 79 0 10 7 21 15 24 18 7 20 65 3 82 -20 20 -56 14
-74 -13z m66 -27 c0 -38 -5 -34 -13 10 -4 21 -3 31 3 27 6 -3 10 -20 10 -37z
m-33 10 c-3 -8 -6 -5 -6 6 -1 11 2 17 5 13 3 -3 4 -12 1 -19z"/>
<path d="M2267 3656 c-24 -36 1 -50 38 -22 16 12 17 16 6 30 -18 22 -26 20
-44 -8z"/>
<path d="M2765 3630 c3 -5 8 -10 11 -10 2 0 4 5 4 10 0 6 -5 10 -11 10 -5 0
-7 -4 -4 -10z"/>
<path d="M2885 3620 c3 -5 8 -10 11 -10 2 0 4 5 4 10 0 6 -5 10 -11 10 -5 0
-7 -4 -4 -10z"/>
<path d="M2732 3587 c-12 -13 -22 -29 -22 -36 0 -20 33 -8 36 12 1 11 6 22 10
25 4 4 4 -1 1 -10 -4 -10 -3 -18 2 -18 5 0 12 -10 16 -22 3 -13 8 -18 11 -12
2 6 -2 23 -10 39 -8 16 -13 32 -10 37 11 17 -14 7 -34 -15z"/>
<path d="M2585 3590 c-24 -9 -50 -38 -42 -46 10 -10 47 7 58 28 13 24 10 28
-16 18z"/>
<path d="M2347 3583 c-16 -16 -7 -34 15 -28 15 5 26 2 37 -13 9 -11 27 -23 41
-26 14 -3 19 -3 13 0 -7 3 -13 11 -13 18 0 32 -72 70 -93 49z"/>
<path d="M2630 3580 c0 -6 7 -10 15 -10 8 0 15 2 15 4 0 2 -7 6 -15 10 -8 3
-15 1 -15 -4z"/>
<path d="M2188 3573 c7 -3 16 -2 19 1 4 3 -2 6 -13 5 -11 0 -14 -3 -6 -6z"/>
<path d="M2810 3559 c0 -11 5 -17 10 -14 6 3 10 13 10 21 0 8 -4 14 -10 14 -5
0 -10 -9 -10 -21z"/>
<path d="M2944 3559 c-8 -13 13 -29 39 -29 11 0 17 5 14 13 -2 6 -10 11 -16
10 -6 -2 -11 2 -11 7 0 13 -17 13 -26 -1z"/>
<path d="M2046 3525 c-3 -8 -1 -15 4 -15 6 0 10 7 10 15 0 8 -2 15 -4 15 -2 0
-6 -7 -10 -15z"/>
<path d="M2580 3520 c0 -5 5 -10 11 -10 5 0 7 5 4 10 -3 6 -8 10 -11 10 -2 0
-4 -4 -4 -10z"/>
<path d="M2626 3523 c-12 -12 -6 -54 9 -60 18 -6 20 -5 29 22 6 20 -25 51 -38
38z"/>
<path d="M2105 3490 c-10 -11 -14 -20 -9 -20 5 0 15 9 22 20 7 11 11 20 9 20
-2 0 -12 -9 -22 -20z"/>
<path d="M2162 3485 c-6 -14 -18 -25 -27 -25 -18 0 -55 -35 -55 -52 1 -9 5 -8
13 2 7 9 29 26 50 39 22 13 37 30 37 42 0 25 -5 24 -18 -6z"/>
<path d="M2750 3498 c0 -6 -8 -20 -17 -30 -20 -22 -5 -45 22 -34 14 5 15 9 5
21 -7 9 -9 19 -5 23 4 4 10 2 12 -5 2 -7 10 -11 16 -9 7 1 9 1 5 -1 -14 -8 -9
-23 7 -23 24 0 17 36 -10 54 -29 19 -35 20 -35 4z"/>
<path d="M2052 3465 c1 -39 13 -46 23 -15 4 12 0 26 -9 35 -14 14 -15 12 -14
-20z"/>
<path d="M2192 3445 c-16 -12 -22 -12 -25 -2 -4 8 -14 2 -32 -17 -29 -31 -30
-69 -3 -74 18 -4 98 65 98 85 0 20 -16 23 -38 8z"/>
<path d="M2600 3445 c0 -8 2 -15 4 -15 2 0 6 7 10 15 3 8 1 15 -4 15 -6 0 -10
-7 -10 -15z"/>
<path d="M2340 3426 c0 -29 19 -44 31 -25 13 20 6 43 -14 47 -12 3 -17 -3 -17
-22z"/>
<path d="M2594 3407 c-8 -21 16 -71 28 -59 5 5 2 24 -6 43 -12 28 -16 31 -22
16z"/>
<path d="M2670 3355 c-9 -11 -9 -28 0 -70 10 -47 15 -55 34 -55 23 0 46 17 46
34 0 5 -8 2 -18 -7 -30 -27 -42 -20 -42 23 0 44 2 45 33 28 34 -18 57 -20 57
-3 0 8 -3 14 -7 14 -23 -4 -35 3 -29 16 3 8 4 15 3 15 -1 0 -16 4 -34 9 -24 7
-35 6 -43 -4z"/>
<path d="M2960 3361 c0 -5 5 -13 10 -16 6 -3 10 -2 10 4 0 5 -4 13 -10 16 -5
3 -10 2 -10 -4z"/>
<path d="M2390 3310 c-9 -6 -10 -10 -3 -10 6 0 15 5 18 10 8 12 4 12 -15 0z"/>
<path d="M2420 3280 c0 -17 26 -30 38 -18 18 18 14 26 -13 26 -14 0 -25 -4
-25 -8z"/>
<path d="M2837 3229 c-9 -17 -21 -27 -27 -24 -5 3 -10 2 -10 -4 0 -5 4 -12 9
-15 9 -6 57 61 49 69 -2 2 -11 -10 -21 -26z"/>
<path d="M2760 3190 c-8 -5 -11 -12 -7 -16 4 -4 15 0 24 9 18 18 8 23 -17 7z"/>
<path d="M2830 3170 c0 -5 7 -10 16 -10 8 0 12 5 9 10 -3 6 -10 10 -16 10 -5
0 -9 -4 -9 -10z"/>
<path d="M2547 3153 c-13 -12 -7 -48 12 -72 l18 -24 11 32 c10 28 9 31 -9 31
-11 0 -18 4 -15 8 7 11 -9 34 -17 25z"/>
<path d="M2630 3139 c0 -5 5 -7 10 -4 6 3 10 8 10 11 0 2 -4 4 -10 4 -5 0 -10
-5 -10 -11z"/>
<path d="M2890 3130 c0 -5 5 -10 11 -10 5 0 7 5 4 10 -3 6 -8 10 -11 10 -2 0
-4 -4 -4 -10z"/>
<path d="M2440 3100 c0 -5 5 -10 10 -10 6 0 10 5 10 10 0 6 -4 10 -10 10 -5 0
-10 -4 -10 -10z"/>
<path d="M2710 2909 c0 -11 4 -18 10 -14 5 3 7 12 3 20 -7 21 -13 19 -13 -6z"/>
<path d="M3235 2575 l-40 -13 46 1 c26 1 45 5 43 9 -2 3 2 9 8 11 27 11 -18 4
-57 -8z"/>
<path d="M3348 2573 c7 -3 16 -2 19 1 4 3 -2 6 -13 5 -11 0 -14 -3 -6 -6z"/>
<path d="M3240 2530 c-8 -5 -11 -12 -7 -16 4 -4 15 0 24 9 18 18 8 23 -17 7z"/>
<path d="M2668 2443 c7 -3 16 -2 19 1 4 3 -2 6 -13 5 -11 0 -14 -3 -6 -6z"/>
<path d="M2480 2420 c0 -5 5 -10 11 -10 5 0 7 5 4 10 -3 6 -8 10 -11 10 -2 0
-4 -4 -4 -10z"/>
<path d="M2625 2382 l-30 -36 32 24 c18 12 34 29 37 37 9 23 -8 13 -39 -25z"/>
<path d="M2645 2370 c-16 -17 -24 -30 -19 -30 13 0 59 48 52 55 -2 3 -17 -9
-33 -25z"/>
<path d="M2524 2365 c25 -19 32 -19 40 0 4 11 -2 15 -27 15 -30 -1 -31 -1 -13
-15z"/>
<path d="M3235 2309 c-4 -6 -5 -12 -2 -15 2 -3 7 2 10 11 7 17 1 20 -8 4z"/>
<path d="M3175 2254 c-9 -15 -12 -23 -6 -20 11 7 35 46 28 46 -3 0 -12 -12
-22 -26z"/>
<path d="M2878 2193 c6 -2 18 -2 25 0 6 3 1 5 -13 5 -14 0 -19 -2 -12 -5z"/>
<path d="M2446 2181 c-4 -5 7 -15 23 -22 16 -7 27 -17 24 -22 -2 -4 7 -20 21
-34 14 -14 23 -29 20 -34 -3 -5 -1 -9 4 -9 5 0 15 -13 22 -29 9 -22 15 -27 23
-19 14 13 16 59 3 50 -5 -3 -6 2 -3 12 5 11 3 15 -5 10 -8 -5 -9 -1 -4 12 4
10 4 16 1 13 -3 -4 -25 13 -50 37 -43 43 -68 54 -79 35z"/>
<path d="M3048 2143 c6 -2 18 -2 25 0 6 3 1 5 -13 5 -14 0 -19 -2 -12 -5z"/>
<path d="M3115 2100 c3 -5 0 -10 -8 -10 -14 0 -32 -28 -24 -37 2 -2 15 1 28 6
13 5 20 10 16 10 -4 1 -3 10 3 21 9 16 8 20 -5 20 -9 0 -13 -4 -10 -10z"/>
<path d="M3060 2079 c0 -5 5 -7 10 -4 6 3 10 8 10 11 0 2 -4 4 -10 4 -5 0 -10
-5 -10 -11z"/>
<path d="M3326 2081 c-3 -5 0 -14 8 -20 11 -9 15 -7 19 9 5 20 -16 29 -27 11z"/>
<path d="M2750 2038 l0 -31 23 19 c12 10 24 20 27 22 6 4 -23 22 -37 22 -8 0
-13 -13 -13 -32z"/>
<path d="M2890 2060 c-17 -5 -19 -8 -7 -9 9 -1 17 -5 17 -11 0 -5 7 -10 16
-10 13 0 14 3 5 14 -9 11 -9 15 1 19 20 8 -4 6 -32 -3z"/>
<path d="M3225 1911 c-3 -5 -1 -12 5 -16 5 -3 10 1 10 9 0 18 -6 21 -15 7z"/>
<path d="M2657 1895 c3 -8 9 -12 14 -9 12 7 11 11 -5 17 -10 4 -13 1 -9 -8z"/>
<path d="M3320 1891 c0 -38 -9 -47 -45 -43 -19 2 -35 0 -35 -6 0 -15 26 -33
36 -24 5 4 1 -3 -10 -15 -18 -21 -17 -22 4 -16 13 3 25 14 27 23 4 15 10 16
38 7 22 -6 36 -18 38 -31 2 -12 5 -2 6 21 1 44 -13 63 -32 44 -19 -19 -26 -12
-20 24 3 19 3 35 -1 35 -3 0 -6 -9 -6 -19z"/>
<path d="M2642 1830 c0 -19 2 -27 5 -17 2 9 2 25 0 35 -3 9 -5 1 -5 -18z"/>
<path d="M4553 4077 c-3 -5 -3 -10 -1 -12 7 -7 48 7 48 16 0 10 -40 7 -47 -4z"/>
<path d="M1650 3719 c0 -5 5 -7 10 -4 6 3 10 8 10 11 0 2 -4 4 -10 4 -5 0 -10
-5 -10 -11z"/>
<path d="M1453 3332 c10 -10 14 -21 11 -24 -3 -3 -1 -9 5 -13 6 -3 11 -1 11 5
0 19 -20 50 -32 50 -6 0 -4 -8 5 -18z"/>
<path d="M1500 3286 c0 -2 7 -7 16 -10 8 -3 12 -2 9 4 -6 10 -25 14 -25 6z"/>
<path d="M1010 1894 c0 -7 52 -25 57 -20 2 2 -10 8 -26 14 -17 6 -31 9 -31 6z"/>
<path d="M1338 1153 c-22 -5 -23 -19 -4 -26 8 -3 16 2 19 14 3 10 4 18 4 18
-1 -1 -10 -3 -19 -6z"/>
<path d="M1210 1070 c0 -5 5 -10 11 -10 5 0 7 5 4 10 -3 6 -8 10 -11 10 -2 0
-4 -4 -4 -10z"/>
<path d="M1460 918 c0 -7 -3 -23 -6 -34 -6 -21 2 -23 49 -15 11 2 8 36 -5 49
-16 16 -38 15 -38 0z"/>
<path d="M1302 902 c-9 -9 -25 -16 -35 -14 -25 5 -32 -25 -12 -48 10 -11 23
-20 29 -20 6 0 23 -6 37 -14 77 -40 118 -18 61 34 -17 15 -34 25 -37 21 -4 -3
-6 1 -5 9 7 50 -7 63 -38 32z"/>
<path d="M1500 850 c0 -5 5 -10 11 -10 5 0 7 5 4 10 -3 6 -8 10 -11 10 -2 0
-4 -4 -4 -10z"/>
<path d="M1591 787 c2 -1 13 -9 24 -17 19 -14 19 -14 6 3 -7 9 -18 17 -24 17
-6 0 -8 -1 -6 -3z"/>
<path d="M1270 730 c-9 -6 -10 -10 -3 -10 6 0 15 5 18 10 8 12 4 12 -15 0z"/>
<path d="M1441 731 c-10 -7 -10 -10 -1 -16 6 -4 16 -3 22 3 13 13 -4 23 -21
13z"/>
<path d="M2943 423 c9 -2 23 -2 30 0 6 3 -1 5 -18 5 -16 0 -22 -2 -12 -5z"/>
<path d="M2831 399 c-24 -5 -48 -6 -52 -3 -5 3 -9 1 -9 -3 0 -5 -12 -10 -26
-11 -30 -2 -44 -9 -44 -23 0 -12 57 -12 65 1 3 6 23 10 43 10 28 0 33 -3 22
-10 -11 -7 -3 -10 31 -10 40 0 69 13 69 30 0 6 -48 32 -53 29 -1 -1 -22 -5
-46 -10z"/>
<path d="M3212 394 c-25 -11 1 -24 48 -24 28 0 50 -5 52 -12 3 -7 11 -9 24 -4
19 8 19 8 -1 16 -19 8 -19 9 3 9 12 1 22 4 22 9 0 8 -129 14 -148 6z"/>
<path d="M3248 353 c6 -2 18 -2 25 0 6 3 1 5 -13 5 -14 0 -19 -2 -12 -5z"/>
<path d="M2392 333 c-38 -7 -13 -23 36 -23 46 1 46 1 22 15 -14 8 -27 14 -30
13 -3 0 -15 -3 -28 -5z"/>
<path d="M2688 329 c-8 -6 0 -9 24 -9 20 0 39 3 41 8 7 10 -49 11 -65 1z"/>
<path d="M3278 303 c6 -2 18 -2 25 0 6 3 1 5 -13 5 -14 0 -19 -2 -12 -5z"/>
<path d="M2540 290 c8 -5 26 -9 40 -9 l25 1 -25 8 c-14 4 -32 8 -40 9 -13 1
-13 0 0 -9z"/>
<path d="M2930 280 c20 -13 40 -13 40 0 0 6 -12 10 -27 10 -22 0 -25 -2 -13
-10z"/>
<path d="M2740 270 c8 -5 31 -9 50 -9 32 1 33 2 10 9 -14 4 -36 8 -50 9 -20 1
-22 -1 -10 -9z"/>
</g>
</svg>
